<svg id="Layer_1" enable-background="new 0 0 512 512" height="512" viewBox="0 0 512 512" width="512" xmlns="http://www.w3.org/2000/svg"><path clip-rule="evenodd" d="m256 16c132.548 0 240 107.452 240 240s-107.452 240-240 240-240-107.452-240-240 107.452-240 240-240zm-112.34 254.249 68.352 62.771c9.971 9.176 25.404 8.688 34.779-.984l121.938-116.749c9.918-9.541 10.224-25.316.683-35.233-9.541-9.918-25.315-10.224-35.233-.684l-105.625 101.13-51.124-46.95c-10.134-9.325-25.909-8.67-35.234 1.464-9.325 10.135-8.67 25.91 1.464 35.235z" fill-rule="evenodd"/></svg>