<svg id="Layer_1" enable-background="new 0 0 1024 1024" viewBox="0 0 1024 1024" xmlns="http://www.w3.org/2000/svg"><g id="XMLID_64_"><g id="XMLID_76_"><g id="XMLID_24_"><path id="XMLID_28_" d="m884 512c0 10.5-.4 21-1.2 31.5-.4 4.8-.9 9.6-1.4 14.5-.2 1.4-.3 2.7-.5 4.1-.6 4.6.5-3.6.1-.5-.4 2.9-.9 5.9-1.3 8.8-3.2 19.6-7.9 38.9-14 57.8-3 9.3-6.4 18.5-10.1 27.5-.7 1.6-.9 4.8 0 .1-.2 1-.9 2.1-1.3 3-1 2.2-2 4.4-3 6.7-2 4.4-4.1 8.8-6.3 13.1-8.9 17.6-19.2 34.6-30.6 50.6-2.5 3.6-5.2 7.1-7.8 10.5-2.8 3.7 2.8-3.5-.1.1-.8 1-1.6 2.1-2.4 3.1-1.6 2-3.3 4.1-5 6.1-6.2 7.4-12.6 14.5-19.2 21.4-6.7 6.9-13.6 13.6-20.8 19.9-3.6 3.2-7.2 6.3-10.9 9.4-1.7 1.4-3.4 2.8-5.1 4.1-1 .8-2.1 1.6-3.1 2.4-3.6 2.9 3.6-2.7-.1.1-15.7 11.9-32.2 22.8-49.5 32.2-8.5 4.7-17.2 9-26 13-2 .9-4 1.8-6.1 2.7-1.3.6-4.6 2.8-.1.1-.7.4-1.7.7-2.5 1-4.9 2-9.9 3.9-14.9 5.8-18.6 6.7-37.6 12.1-57 15.9-4.9 1-9.8 1.9-14.8 2.6-2.3.4-4.5.7-6.8 1-4.8.7 4.7-.6-.1 0-1.4.2-2.7.3-4.1.5-10.3 1.2-20.7 2-31.2 2.4-20.7.8-41.5-.1-62-2.5-1.1-.1-2.3-.3-3.4-.4-3-.4 5.2.8.6.1-2.5-.4-5-.7-7.5-1.1-5.2-.8-10.3-1.8-15.4-2.8-9.7-2-19.4-4.3-28.9-7s-18.8-5.7-28-9.1c-4.6-1.7-9.1-3.5-13.7-5.3-1.7-.7-4.7-.8-.1 0-.7-.1-1.9-.8-2.4-1.1-2.6-1.1-5.3-2.3-7.9-3.5-17.8-8.2-34.9-17.7-51.2-28.5-7.8-5.1-16.7-10.3-23.5-16.7 4.3 4-1-.8-2.1-1.7-2-1.6-4.1-3.3-6.1-5-3.7-3.1-7.3-6.2-10.9-9.4-14.3-12.8-27.6-26.7-39.9-41.5-1.7-2-3.3-4-5-6.1-.5-.7-1.1-1.4-1.6-2.1-2.9-3.6 2.7 3.6-.1-.1-3.2-4.2-6.3-8.4-9.3-12.7-5.5-7.9-10.8-16-15.7-24.2-5-8.3-9.6-16.8-14-25.4-2.1-4.1-4.1-8.3-6-12.5-1-2.2-2-4.4-3-6.7-.2-.4-2-4.4-.6-1.3s-.8-2-1-2.5c-7.4-18.2-13.4-37-18-56.1-2.4-9.9-4.4-19.9-5.9-30-.4-2.3-1.2-5.1-1.1-7.5-.3 4.7.3 2.3.1.5-.1-1.1-.3-2.3-.4-3.4-.6-5.5-1.2-11-1.6-16.5-1.5-20.5-1.4-41.1.2-61.5.4-5.1.9-10.1 1.5-15.1.1-.9.2-1.8.3-2.7.6-4.8-.7 4.7 0-.1.4-2.7.8-5.4 1.2-8.1 1.6-9.8 3.6-19.6 5.9-29.3 4.7-19.6 11.1-38.6 18.7-57.2.6-1.5.2-2.5-.5 1.1.2-1.2 1.1-2.6 1.6-3.7.9-2 1.8-4 2.7-6 2.2-4.8 4.5-9.6 6.9-14.3 4.4-8.6 9.1-17.1 14.1-25.3s10.3-16.3 15.9-24.1c2.7-3.8 5.4-8.2 8.6-11.6-4 4.2.8-1 1.7-2.1 1.6-2 3.3-4.1 5-6.1 12.6-15.1 26.3-29.2 41-42.2 3.3-2.9 6.6-5.7 9.9-8.5 1.8-1.5 3.7-3 5.6-4.5.9-.7 1.7-1.4 2.6-2 1.7-1.3 1.4-1.1-.9.7.7-.5 1.4-1.1 2.1-1.6 7.7-5.8 15.5-11.4 23.6-16.6 16.2-10.5 33.2-19.9 50.8-27.9 2.2-1 4.4-2 6.7-3 1.3-.6 3.7-2.3-.5.2 1.1-.6 2.5-1 3.7-1.5 4.5-1.8 9.1-3.6 13.7-5.3 9.4-3.4 19-6.5 28.7-9.2 9.8-2.7 19.7-5.1 29.6-7 4.5-.9 8.9-1.7 13.4-2.4 2.5-.4 5.7-1.4 8.1-1.2-.4 0-4.9.6-1.2.2 1.8-.2 3.6-.5 5.5-.7 20.4-2.3 40.9-3 61.4-2.1 10.2.4 20.3 1.3 30.4 2.5 1.3.2 2.9.1 4.1.5-5-1.6-1.4-.2.1 0 2.3.3 4.5.7 6.8 1 5.2.8 10.3 1.8 15.4 2.8 19.6 4 38.8 9.5 57.5 16.5 4.2 1.5 8.3 3.2 12.4 4.8 1.6.7 4.8.9.1 0 1.2.2 2.6 1.1 3.7 1.6 2.4 1.1 4.8 2.2 7.3 3.3 8.8 4.1 17.4 8.5 25.9 13.2 8.4 4.7 16.7 9.7 24.7 15 7.8 5.1 16.8 10.3 23.5 16.7-3.9-3.7-.9-.7.1.1s2.1 1.6 3.1 2.5c1.7 1.4 3.4 2.8 5.1 4.2 3.9 3.2 7.6 6.5 11.4 9.9 7.3 6.6 14.3 13.4 21.1 20.5 6.6 6.9 13 14.1 19.1 21.5 1.4 1.7 2.8 3.4 4.1 5.1.7.9 2 2 2.4 3.1-1.6-3.8-1.5-1.9-.3-.4 3 4 6 8.1 8.9 12.2 11.1 15.8 21 32.4 29.7 49.7 2.2 4.3 4.3 8.7 6.3 13.1.9 2 1.8 4 2.7 6.1.5 1.2 2.8 4.7.1.1.8 1.3 1.2 2.9 1.8 4.3 3.8 9.3 7.2 18.7 10.2 28.2 6 18.9 10.6 38.3 13.6 57.9.4 2.3.6 4.5 1 6.8-1.1-6.2.3 2.7.5 4.2.5 4.6 1 9.2 1.3 13.8.7 10 1.1 20.2 1.1 30.5 0 10.5 9.2 20.5 20 20s20-8.8 20-20c-.1-84.4-26.2-168.5-75.3-237.4-48.9-68.6-117.1-120.9-196.1-150-80.4-29.6-170.7-32.5-253.1-9.1-79.4 22.5-151.8 69.5-204.3 133.2-54.5 66.1-87.3 147-94 232.5-6.6 84.8 14.1 171.3 58.2 244 42.6 70.2 106.5 127.7 181.4 161.5 79.8 36 169 46.1 254.8 28.7 81.2-16.5 156.9-58.8 214.1-118.7 57.4-60.1 96.5-137.7 109.1-219.9 3.3-21.5 5.2-43.1 5.2-64.8 0-10.5-9.2-20.5-20-20-10.9.5-20 8.8-20 20z"/></g></g><g id="XMLID_65_"><g id="XMLID_18_"><path id="XMLID_22_" d="m532 685.8c0-11.5 0-23.1 0-34.6 0-27.6 0-55.1 0-82.7 0-33.5 0-67 0-100.5 0-29 0-58 0-87 0-14.1.4-28.2 0-42.3 0-.2 0-.4 0-.6 0-10.5-9.2-20.5-20-20s-20 8.8-20 20v34.6 82.7 100.5 87c0 14.1-.4 28.2 0 42.3v.6c0 10.5 9.2 20.5 20 20 10.8-.4 20-8.7 20-20z"/></g></g><g id="XMLID_66_"><g id="XMLID_12_"><path id="XMLID_16_" d="m685.8 492c-11.5 0-23.1 0-34.6 0-27.6 0-55.1 0-82.7 0-33.5 0-67 0-100.5 0-29 0-58 0-87 0-14.1 0-28.2-.4-42.3 0-.2 0-.4 0-.6 0-10.5 0-20.5 9.2-20 20s8.8 20 20 20h34.6 82.7 100.5 87c14.1 0 28.2.4 42.3 0h.6c10.5 0 20.5-9.2 20-20-.4-10.8-8.7-20-20-20z"/></g></g></g></svg>