<svg id="layer_1" enable-background="new 0 0 32 32" height="512" viewBox="0 0 32 32" width="512" xmlns="http://www.w3.org/2000/svg"><path d="m21 15h-4v-4c0-.5522461-.4472656-1-1-1s-1 .4477539-1 1v4h-4c-.5527344 0-1 .4477539-1 1s.4472656 1 1 1h4v4c0 .5522461.4472656 1 1 1s1-.4477539 1-1v-4h4c.5527344 0 1-.4477539 1-1s-.4472656-1-1-1z"/><path d="m23 2h-14c-3.859375 0-7 3.1401367-7 7v14c0 3.8598633 3.140625 7 7 7h14c3.859375 0 7-3.1401367 7-7v-14c0-3.8598633-3.140625-7-7-7zm5 21c0 2.7568359-2.2431641 5-5 5h-14c-2.7568359 0-5-2.2431641-5-5v-14c0-2.7568359 2.2431641-5 5-5h14c2.7568359 0 5 2.2431641 5 5z"/></svg>